<mxfile host="app.diagrams.net" modified="2024-06-29T01:19:40.202Z" agent="Mozilla/5.0 (Windows NT 10.0; Win64; x64) AppleWebKit/537.36 (KHTML, like Gecko) Chrome/126.0.0.0 Safari/537.36 Edg/126.0.0.0" etag="WJhB5DUcQRYXeYGftEvR" version="24.6.4" type="device" pages="2">
  <diagram name="Page-1" id="ffqI6i86uGHbT-FmUgQb">
    <mxGraphModel dx="2607" dy="1433" grid="1" gridSize="10" guides="1" tooltips="1" connect="1" arrows="1" fold="1" page="1" pageScale="1" pageWidth="1654" pageHeight="1169" math="0" shadow="0">
      <root>
        <mxCell id="0" />
        <mxCell id="1" parent="0" />
        <mxCell id="WmtXpr93aH1d4JY0LvO6-1" value="&lt;font style=&quot;font-size: 50px;&quot;&gt;MotoGP Diagrama Conceitual&lt;/font&gt;" style="text;html=1;align=center;verticalAlign=middle;whiteSpace=wrap;rounded=0;fontSize=50;fontStyle=2;fillColor=#76608a;fontColor=#ffffff;strokeColor=#432D57;" parent="1" vertex="1">
          <mxGeometry width="900" height="120" as="geometry" />
        </mxCell>
        <mxCell id="LlG2ObxfP0OU8Gxy-oZI-39" style="edgeStyle=none;rounded=0;orthogonalLoop=1;jettySize=auto;html=1;exitX=1;exitY=1;exitDx=0;exitDy=0;entryX=0;entryY=0.5;entryDx=0;entryDy=0;endArrow=none;endFill=0;" parent="1" source="QVoMGO1QlLbTT4S3PVhZ-1" target="LlG2ObxfP0OU8Gxy-oZI-38" edge="1">
          <mxGeometry relative="1" as="geometry" />
        </mxCell>
        <mxCell id="LlG2ObxfP0OU8Gxy-oZI-59" style="edgeStyle=none;rounded=0;orthogonalLoop=1;jettySize=auto;html=1;exitX=0;exitY=0;exitDx=0;exitDy=0;entryX=0.5;entryY=1;entryDx=0;entryDy=0;endArrow=none;endFill=0;" parent="1" source="QVoMGO1QlLbTT4S3PVhZ-1" target="QVoMGO1QlLbTT4S3PVhZ-2" edge="1">
          <mxGeometry relative="1" as="geometry" />
        </mxCell>
        <mxCell id="LlG2ObxfP0OU8Gxy-oZI-60" style="edgeStyle=none;rounded=0;orthogonalLoop=1;jettySize=auto;html=1;exitX=0.5;exitY=0;exitDx=0;exitDy=0;entryX=0.5;entryY=1;entryDx=0;entryDy=0;endArrow=none;endFill=0;" parent="1" source="QVoMGO1QlLbTT4S3PVhZ-1" target="QVoMGO1QlLbTT4S3PVhZ-3" edge="1">
          <mxGeometry relative="1" as="geometry" />
        </mxCell>
        <mxCell id="LlG2ObxfP0OU8Gxy-oZI-61" style="edgeStyle=none;rounded=0;orthogonalLoop=1;jettySize=auto;html=1;exitX=1;exitY=0;exitDx=0;exitDy=0;entryX=0.5;entryY=1;entryDx=0;entryDy=0;endArrow=none;endFill=0;" parent="1" source="QVoMGO1QlLbTT4S3PVhZ-1" target="QVoMGO1QlLbTT4S3PVhZ-4" edge="1">
          <mxGeometry relative="1" as="geometry" />
        </mxCell>
        <mxCell id="QVoMGO1QlLbTT4S3PVhZ-1" value="Piloto" style="rounded=0;whiteSpace=wrap;html=1;fontSize=22;" parent="1" vertex="1">
          <mxGeometry x="493.5" y="379" width="120" height="60" as="geometry" />
        </mxCell>
        <mxCell id="QVoMGO1QlLbTT4S3PVhZ-2" value="IdPiloto" style="ellipse;whiteSpace=wrap;html=1;fontSize=22;fontStyle=4" parent="1" vertex="1">
          <mxGeometry x="354" y="284" width="110" height="60" as="geometry" />
        </mxCell>
        <mxCell id="QVoMGO1QlLbTT4S3PVhZ-3" value="Nome" style="ellipse;whiteSpace=wrap;html=1;fontSize=22;" parent="1" vertex="1">
          <mxGeometry x="499" y="284" width="110" height="60" as="geometry" />
        </mxCell>
        <mxCell id="QVoMGO1QlLbTT4S3PVhZ-4" value="Pais" style="ellipse;whiteSpace=wrap;html=1;fontSize=22;" parent="1" vertex="1">
          <mxGeometry x="623" y="284" width="110" height="60" as="geometry" />
        </mxCell>
        <mxCell id="xk6yECvUcxSsOrF-zFxn-3" value="" style="rounded=0;orthogonalLoop=1;jettySize=auto;html=1;endArrow=none;endFill=0;" parent="1" source="NguGZXqHhgM2JfIbU2pB-3" target="NguGZXqHhgM2JfIbU2pB-4" edge="1">
          <mxGeometry relative="1" as="geometry" />
        </mxCell>
        <mxCell id="LlG2ObxfP0OU8Gxy-oZI-23" value="" style="edgeStyle=none;rounded=0;orthogonalLoop=1;jettySize=auto;html=1;endArrow=none;endFill=0;" parent="1" source="NguGZXqHhgM2JfIbU2pB-3" target="QVoMGO1QlLbTT4S3PVhZ-1" edge="1">
          <mxGeometry relative="1" as="geometry" />
        </mxCell>
        <mxCell id="NguGZXqHhgM2JfIbU2pB-3" value="Representa" style="rhombus;whiteSpace=wrap;html=1;fontSize=22;" parent="1" vertex="1">
          <mxGeometry x="480" y="519" width="153" height="80" as="geometry" />
        </mxCell>
        <mxCell id="xk6yECvUcxSsOrF-zFxn-1" style="rounded=0;orthogonalLoop=1;jettySize=auto;html=1;exitX=1;exitY=0.5;exitDx=0;exitDy=0;entryX=0;entryY=0.5;entryDx=0;entryDy=0;endArrow=none;endFill=0;" parent="1" source="NguGZXqHhgM2JfIbU2pB-4" target="ZHaWqZgROCuwLWaStYsj-4" edge="1">
          <mxGeometry relative="1" as="geometry" />
        </mxCell>
        <mxCell id="LlG2ObxfP0OU8Gxy-oZI-54" style="edgeStyle=none;rounded=0;orthogonalLoop=1;jettySize=auto;html=1;exitX=0.25;exitY=1;exitDx=0;exitDy=0;entryX=0.5;entryY=0;entryDx=0;entryDy=0;endArrow=none;endFill=0;" parent="1" source="NguGZXqHhgM2JfIbU2pB-4" target="NguGZXqHhgM2JfIbU2pB-6" edge="1">
          <mxGeometry relative="1" as="geometry" />
        </mxCell>
        <mxCell id="LlG2ObxfP0OU8Gxy-oZI-55" style="edgeStyle=none;rounded=0;orthogonalLoop=1;jettySize=auto;html=1;exitX=0.75;exitY=1;exitDx=0;exitDy=0;entryX=0.5;entryY=0;entryDx=0;entryDy=0;endArrow=none;endFill=0;" parent="1" source="NguGZXqHhgM2JfIbU2pB-4" target="NguGZXqHhgM2JfIbU2pB-7" edge="1">
          <mxGeometry relative="1" as="geometry" />
        </mxCell>
        <mxCell id="NguGZXqHhgM2JfIbU2pB-4" value="Time" style="rounded=0;whiteSpace=wrap;html=1;fontSize=22;" parent="1" vertex="1">
          <mxGeometry x="496.5" y="659" width="120" height="60" as="geometry" />
        </mxCell>
        <mxCell id="NguGZXqHhgM2JfIbU2pB-6" value="Nome" style="ellipse;whiteSpace=wrap;html=1;fontSize=22;fontStyle=4" parent="1" vertex="1">
          <mxGeometry x="445.5" y="778" width="110" height="60" as="geometry" />
        </mxCell>
        <mxCell id="NguGZXqHhgM2JfIbU2pB-7" value="Pais" style="ellipse;whiteSpace=wrap;html=1;fontSize=22;" parent="1" vertex="1">
          <mxGeometry x="565.5" y="778" width="110" height="60" as="geometry" />
        </mxCell>
        <mxCell id="LlG2ObxfP0OU8Gxy-oZI-52" style="edgeStyle=none;rounded=0;orthogonalLoop=1;jettySize=auto;html=1;exitX=0.25;exitY=1;exitDx=0;exitDy=0;entryX=0.5;entryY=0;entryDx=0;entryDy=0;endArrow=none;endFill=0;" parent="1" source="ZHaWqZgROCuwLWaStYsj-1" target="ZHaWqZgROCuwLWaStYsj-2" edge="1">
          <mxGeometry relative="1" as="geometry" />
        </mxCell>
        <mxCell id="LlG2ObxfP0OU8Gxy-oZI-53" style="edgeStyle=none;rounded=0;orthogonalLoop=1;jettySize=auto;html=1;exitX=0.75;exitY=1;exitDx=0;exitDy=0;entryX=0.5;entryY=0;entryDx=0;entryDy=0;endArrow=none;endFill=0;" parent="1" source="ZHaWqZgROCuwLWaStYsj-1" target="ZHaWqZgROCuwLWaStYsj-3" edge="1">
          <mxGeometry relative="1" as="geometry" />
        </mxCell>
        <mxCell id="ZHaWqZgROCuwLWaStYsj-1" value="Patrocinador" style="rounded=0;whiteSpace=wrap;html=1;fontSize=22;" parent="1" vertex="1">
          <mxGeometry x="693" y="884" width="120" height="60" as="geometry" />
        </mxCell>
        <mxCell id="ZHaWqZgROCuwLWaStYsj-2" value="Nome" style="ellipse;whiteSpace=wrap;html=1;fontSize=22;fontStyle=4" parent="1" vertex="1">
          <mxGeometry x="642" y="988" width="110" height="60" as="geometry" />
        </mxCell>
        <mxCell id="ZHaWqZgROCuwLWaStYsj-3" value="Pais" style="ellipse;whiteSpace=wrap;html=1;fontSize=22;" parent="1" vertex="1">
          <mxGeometry x="762" y="988" width="110" height="60" as="geometry" />
        </mxCell>
        <mxCell id="LlG2ObxfP0OU8Gxy-oZI-90" style="edgeStyle=none;rounded=0;orthogonalLoop=1;jettySize=auto;html=1;entryX=0.5;entryY=0;entryDx=0;entryDy=0;endArrow=none;endFill=0;" parent="1" source="ZHaWqZgROCuwLWaStYsj-4" target="ZHaWqZgROCuwLWaStYsj-1" edge="1">
          <mxGeometry relative="1" as="geometry">
            <mxPoint x="752.9999999999995" y="759.9999999999998" as="targetPoint" />
          </mxGeometry>
        </mxCell>
        <mxCell id="ZHaWqZgROCuwLWaStYsj-4" value="Patrocina" style="rhombus;whiteSpace=wrap;html=1;fontSize=22;" parent="1" vertex="1">
          <mxGeometry x="676.5" y="647" width="153" height="80" as="geometry" />
        </mxCell>
        <mxCell id="LlG2ObxfP0OU8Gxy-oZI-56" style="edgeStyle=none;rounded=0;orthogonalLoop=1;jettySize=auto;html=1;exitX=0;exitY=1;exitDx=0;exitDy=0;entryX=0.5;entryY=0;entryDx=0;entryDy=0;endArrow=none;endFill=0;" parent="1" source="5u643ADw6RDCrsUtKA6Q-1" target="5u643ADw6RDCrsUtKA6Q-2" edge="1">
          <mxGeometry relative="1" as="geometry" />
        </mxCell>
        <mxCell id="LlG2ObxfP0OU8Gxy-oZI-57" style="edgeStyle=none;rounded=0;orthogonalLoop=1;jettySize=auto;html=1;exitX=1;exitY=1;exitDx=0;exitDy=0;entryX=0.5;entryY=0;entryDx=0;entryDy=0;endArrow=none;endFill=0;" parent="1" source="5u643ADw6RDCrsUtKA6Q-1" target="5u643ADw6RDCrsUtKA6Q-4" edge="1">
          <mxGeometry relative="1" as="geometry" />
        </mxCell>
        <mxCell id="LlG2ObxfP0OU8Gxy-oZI-58" style="edgeStyle=none;rounded=0;orthogonalLoop=1;jettySize=auto;html=1;exitX=0.5;exitY=1;exitDx=0;exitDy=0;endArrow=none;endFill=0;" parent="1" source="5u643ADw6RDCrsUtKA6Q-1" target="5u643ADw6RDCrsUtKA6Q-3" edge="1">
          <mxGeometry relative="1" as="geometry" />
        </mxCell>
        <mxCell id="5u643ADw6RDCrsUtKA6Q-1" value="Mecanico" style="rounded=0;whiteSpace=wrap;html=1;fontSize=22;" parent="1" vertex="1">
          <mxGeometry x="149" y="659" width="120" height="60" as="geometry" />
        </mxCell>
        <mxCell id="5u643ADw6RDCrsUtKA6Q-2" value="IdMecanico" style="ellipse;whiteSpace=wrap;html=1;fontSize=22;fontStyle=4" parent="1" vertex="1">
          <mxGeometry x="34" y="773" width="110" height="60" as="geometry" />
        </mxCell>
        <mxCell id="5u643ADw6RDCrsUtKA6Q-3" value="Nome" style="ellipse;whiteSpace=wrap;html=1;fontSize=22;" parent="1" vertex="1">
          <mxGeometry x="154" y="773" width="110" height="60" as="geometry" />
        </mxCell>
        <mxCell id="5u643ADw6RDCrsUtKA6Q-4" value="Especialidade" style="ellipse;whiteSpace=wrap;html=1;fontSize=18;" parent="1" vertex="1">
          <mxGeometry x="274" y="773" width="110" height="60" as="geometry" />
        </mxCell>
        <mxCell id="LlG2ObxfP0OU8Gxy-oZI-24" value="" style="edgeStyle=none;rounded=0;orthogonalLoop=1;jettySize=auto;html=1;endArrow=none;endFill=0;" parent="1" source="5u643ADw6RDCrsUtKA6Q-5" target="5u643ADw6RDCrsUtKA6Q-1" edge="1">
          <mxGeometry relative="1" as="geometry" />
        </mxCell>
        <mxCell id="LlG2ObxfP0OU8Gxy-oZI-25" style="edgeStyle=none;rounded=0;orthogonalLoop=1;jettySize=auto;html=1;exitX=1;exitY=0.5;exitDx=0;exitDy=0;entryX=0;entryY=0.5;entryDx=0;entryDy=0;endArrow=none;endFill=0;" parent="1" source="5u643ADw6RDCrsUtKA6Q-5" target="NguGZXqHhgM2JfIbU2pB-4" edge="1">
          <mxGeometry relative="1" as="geometry" />
        </mxCell>
        <mxCell id="5u643ADw6RDCrsUtKA6Q-5" value="Trabalha" style="rhombus;whiteSpace=wrap;html=1;fontSize=22;" parent="1" vertex="1">
          <mxGeometry x="309" y="649" width="153" height="80" as="geometry" />
        </mxCell>
        <mxCell id="LlG2ObxfP0OU8Gxy-oZI-31" style="edgeStyle=none;rounded=0;orthogonalLoop=1;jettySize=auto;html=1;exitX=0;exitY=0.5;exitDx=0;exitDy=0;entryX=1;entryY=0.5;entryDx=0;entryDy=0;endArrow=none;endFill=0;" parent="1" source="T_2y0Nz16XLh9XgGrhwa-1" target="LlG2ObxfP0OU8Gxy-oZI-22" edge="1">
          <mxGeometry relative="1" as="geometry" />
        </mxCell>
        <mxCell id="LlG2ObxfP0OU8Gxy-oZI-45" style="edgeStyle=none;rounded=0;orthogonalLoop=1;jettySize=auto;html=1;exitX=0;exitY=0;exitDx=0;exitDy=0;entryX=0.5;entryY=1;entryDx=0;entryDy=0;endArrow=none;endFill=0;" parent="1" source="T_2y0Nz16XLh9XgGrhwa-1" target="T_2y0Nz16XLh9XgGrhwa-2" edge="1">
          <mxGeometry relative="1" as="geometry" />
        </mxCell>
        <mxCell id="LlG2ObxfP0OU8Gxy-oZI-46" style="edgeStyle=none;rounded=0;orthogonalLoop=1;jettySize=auto;html=1;exitX=0.5;exitY=0;exitDx=0;exitDy=0;entryX=0.5;entryY=1;entryDx=0;entryDy=0;endArrow=none;endFill=0;" parent="1" source="T_2y0Nz16XLh9XgGrhwa-1" target="T_2y0Nz16XLh9XgGrhwa-3" edge="1">
          <mxGeometry relative="1" as="geometry" />
        </mxCell>
        <mxCell id="LlG2ObxfP0OU8Gxy-oZI-47" style="edgeStyle=none;rounded=0;orthogonalLoop=1;jettySize=auto;html=1;exitX=1;exitY=0;exitDx=0;exitDy=0;entryX=0.5;entryY=1;entryDx=0;entryDy=0;endArrow=none;endFill=0;" parent="1" source="T_2y0Nz16XLh9XgGrhwa-1" target="T_2y0Nz16XLh9XgGrhwa-4" edge="1">
          <mxGeometry relative="1" as="geometry" />
        </mxCell>
        <mxCell id="T_2y0Nz16XLh9XgGrhwa-1" value="AppUser" style="rounded=0;whiteSpace=wrap;html=1;fontSize=22;" parent="1" vertex="1">
          <mxGeometry x="1101" y="379" width="120" height="60" as="geometry" />
        </mxCell>
        <mxCell id="T_2y0Nz16XLh9XgGrhwa-2" value="Email" style="ellipse;whiteSpace=wrap;html=1;fontSize=22;fontStyle=4" parent="1" vertex="1">
          <mxGeometry x="994" y="284" width="110" height="60" as="geometry" />
        </mxCell>
        <mxCell id="T_2y0Nz16XLh9XgGrhwa-3" value="Usuario" style="ellipse;whiteSpace=wrap;html=1;fontSize=22;" parent="1" vertex="1">
          <mxGeometry x="1106" y="284" width="110" height="60" as="geometry" />
        </mxCell>
        <mxCell id="T_2y0Nz16XLh9XgGrhwa-4" value="Senha" style="ellipse;whiteSpace=wrap;html=1;fontSize=22;" parent="1" vertex="1">
          <mxGeometry x="1219" y="284" width="110" height="60" as="geometry" />
        </mxCell>
        <mxCell id="LlG2ObxfP0OU8Gxy-oZI-19" style="edgeStyle=orthogonalEdgeStyle;rounded=0;orthogonalLoop=1;jettySize=auto;html=1;exitX=1;exitY=0.5;exitDx=0;exitDy=0;endArrow=none;endFill=0;" parent="1" source="T_2y0Nz16XLh9XgGrhwa-5" target="T_2y0Nz16XLh9XgGrhwa-6" edge="1">
          <mxGeometry relative="1" as="geometry" />
        </mxCell>
        <mxCell id="LlG2ObxfP0OU8Gxy-oZI-20" style="edgeStyle=orthogonalEdgeStyle;rounded=0;orthogonalLoop=1;jettySize=auto;html=1;exitX=0.5;exitY=1;exitDx=0;exitDy=0;endArrow=none;endFill=0;" parent="1" source="T_2y0Nz16XLh9XgGrhwa-5" target="LlG2ObxfP0OU8Gxy-oZI-7" edge="1">
          <mxGeometry relative="1" as="geometry" />
        </mxCell>
        <mxCell id="LlG2ObxfP0OU8Gxy-oZI-21" style="edgeStyle=orthogonalEdgeStyle;rounded=0;orthogonalLoop=1;jettySize=auto;html=1;exitX=0;exitY=0.5;exitDx=0;exitDy=0;endArrow=none;endFill=0;" parent="1" source="T_2y0Nz16XLh9XgGrhwa-5" target="T_2y0Nz16XLh9XgGrhwa-1" edge="1">
          <mxGeometry relative="1" as="geometry" />
        </mxCell>
        <mxCell id="T_2y0Nz16XLh9XgGrhwa-5" value="Comenta" style="rhombus;whiteSpace=wrap;html=1;fontSize=22;" parent="1" vertex="1">
          <mxGeometry x="1281" y="369" width="153" height="80" as="geometry" />
        </mxCell>
        <mxCell id="T_2y0Nz16XLh9XgGrhwa-6" value="Texto" style="ellipse;whiteSpace=wrap;html=1;fontSize=22;" parent="1" vertex="1">
          <mxGeometry x="1464" y="379" width="110" height="60" as="geometry" />
        </mxCell>
        <mxCell id="LlG2ObxfP0OU8Gxy-oZI-41" style="edgeStyle=none;rounded=0;orthogonalLoop=1;jettySize=auto;html=1;exitX=0.5;exitY=0;exitDx=0;exitDy=0;endArrow=none;endFill=0;" parent="1" source="LlG2ObxfP0OU8Gxy-oZI-1" target="LlG2ObxfP0OU8Gxy-oZI-3" edge="1">
          <mxGeometry relative="1" as="geometry" />
        </mxCell>
        <mxCell id="LlG2ObxfP0OU8Gxy-oZI-94" value="" style="edgeStyle=none;rounded=0;orthogonalLoop=1;jettySize=auto;html=1;endArrow=none;endFill=0;" parent="1" source="LlG2ObxfP0OU8Gxy-oZI-1" target="LlG2ObxfP0OU8Gxy-oZI-92" edge="1">
          <mxGeometry relative="1" as="geometry" />
        </mxCell>
        <mxCell id="LlG2ObxfP0OU8Gxy-oZI-1" value="Classificacao" style="rounded=0;whiteSpace=wrap;html=1;fontSize=22;" parent="1" vertex="1">
          <mxGeometry x="937" y="570.5" width="120" height="60" as="geometry" />
        </mxCell>
        <mxCell id="LlG2ObxfP0OU8Gxy-oZI-3" value="Pontos" style="ellipse;whiteSpace=wrap;html=1;fontSize=22;" parent="1" vertex="1">
          <mxGeometry x="942" y="479" width="110" height="60" as="geometry" />
        </mxCell>
        <mxCell id="LlG2ObxfP0OU8Gxy-oZI-36" style="edgeStyle=none;rounded=0;orthogonalLoop=1;jettySize=auto;html=1;exitX=0.5;exitY=1;exitDx=0;exitDy=0;entryX=0.5;entryY=0;entryDx=0;entryDy=0;endArrow=none;endFill=0;" parent="1" source="LlG2ObxfP0OU8Gxy-oZI-5" target="LlG2ObxfP0OU8Gxy-oZI-6" edge="1">
          <mxGeometry relative="1" as="geometry" />
        </mxCell>
        <mxCell id="LlG2ObxfP0OU8Gxy-oZI-93" value="" style="edgeStyle=none;rounded=0;orthogonalLoop=1;jettySize=auto;html=1;endArrow=none;endFill=0;" parent="1" source="LlG2ObxfP0OU8Gxy-oZI-5" target="LlG2ObxfP0OU8Gxy-oZI-92" edge="1">
          <mxGeometry relative="1" as="geometry" />
        </mxCell>
        <mxCell id="LlG2ObxfP0OU8Gxy-oZI-5" value="Temporada" style="rounded=0;whiteSpace=wrap;html=1;fontSize=22;" parent="1" vertex="1">
          <mxGeometry x="938" y="796" width="120" height="60" as="geometry" />
        </mxCell>
        <mxCell id="LlG2ObxfP0OU8Gxy-oZI-6" value="Ano" style="ellipse;whiteSpace=wrap;html=1;fontSize=22;" parent="1" vertex="1">
          <mxGeometry x="943" y="876" width="110" height="60" as="geometry" />
        </mxCell>
        <mxCell id="LlG2ObxfP0OU8Gxy-oZI-34" style="edgeStyle=none;rounded=0;orthogonalLoop=1;jettySize=auto;html=1;exitX=1;exitY=0;exitDx=0;exitDy=0;entryX=0;entryY=0.5;entryDx=0;entryDy=0;endArrow=none;endFill=0;" parent="1" source="LlG2ObxfP0OU8Gxy-oZI-7" target="LlG2ObxfP0OU8Gxy-oZI-8" edge="1">
          <mxGeometry relative="1" as="geometry" />
        </mxCell>
        <mxCell id="LlG2ObxfP0OU8Gxy-oZI-35" style="edgeStyle=none;rounded=0;orthogonalLoop=1;jettySize=auto;html=1;exitX=1;exitY=1;exitDx=0;exitDy=0;entryX=0;entryY=0.5;entryDx=0;entryDy=0;endArrow=none;endFill=0;" parent="1" source="LlG2ObxfP0OU8Gxy-oZI-7" target="LlG2ObxfP0OU8Gxy-oZI-9" edge="1">
          <mxGeometry relative="1" as="geometry" />
        </mxCell>
        <mxCell id="LlG2ObxfP0OU8Gxy-oZI-43" value="" style="edgeStyle=none;rounded=0;orthogonalLoop=1;jettySize=auto;html=1;endArrow=none;endFill=0;" parent="1" source="LlG2ObxfP0OU8Gxy-oZI-7" target="LlG2ObxfP0OU8Gxy-oZI-42" edge="1">
          <mxGeometry relative="1" as="geometry" />
        </mxCell>
        <mxCell id="LlG2ObxfP0OU8Gxy-oZI-7" value="Corrida" style="rounded=0;whiteSpace=wrap;html=1;fontSize=22;" parent="1" vertex="1">
          <mxGeometry x="1296" y="570" width="120" height="60" as="geometry" />
        </mxCell>
        <mxCell id="LlG2ObxfP0OU8Gxy-oZI-8" value="ID" style="ellipse;whiteSpace=wrap;html=1;fontSize=22;fontStyle=4" parent="1" vertex="1">
          <mxGeometry x="1434" y="519" width="110" height="60" as="geometry" />
        </mxCell>
        <mxCell id="LlG2ObxfP0OU8Gxy-oZI-9" value="Data" style="ellipse;whiteSpace=wrap;html=1;fontSize=22;" parent="1" vertex="1">
          <mxGeometry x="1434" y="619" width="110" height="60" as="geometry" />
        </mxCell>
        <mxCell id="LlG2ObxfP0OU8Gxy-oZI-48" style="edgeStyle=none;rounded=0;orthogonalLoop=1;jettySize=auto;html=1;exitX=0;exitY=1;exitDx=0;exitDy=0;entryX=0.5;entryY=0;entryDx=0;entryDy=0;endArrow=none;endFill=0;" parent="1" source="LlG2ObxfP0OU8Gxy-oZI-11" target="LlG2ObxfP0OU8Gxy-oZI-12" edge="1">
          <mxGeometry relative="1" as="geometry" />
        </mxCell>
        <mxCell id="LlG2ObxfP0OU8Gxy-oZI-49" style="edgeStyle=none;rounded=0;orthogonalLoop=1;jettySize=auto;html=1;exitX=0.25;exitY=1;exitDx=0;exitDy=0;entryX=0.5;entryY=0;entryDx=0;entryDy=0;endArrow=none;endFill=0;" parent="1" source="LlG2ObxfP0OU8Gxy-oZI-11" target="LlG2ObxfP0OU8Gxy-oZI-13" edge="1">
          <mxGeometry relative="1" as="geometry" />
        </mxCell>
        <mxCell id="LlG2ObxfP0OU8Gxy-oZI-50" style="edgeStyle=none;rounded=0;orthogonalLoop=1;jettySize=auto;html=1;exitX=0.75;exitY=1;exitDx=0;exitDy=0;entryX=0.5;entryY=0;entryDx=0;entryDy=0;endArrow=none;endFill=0;" parent="1" source="LlG2ObxfP0OU8Gxy-oZI-11" target="LlG2ObxfP0OU8Gxy-oZI-14" edge="1">
          <mxGeometry relative="1" as="geometry" />
        </mxCell>
        <mxCell id="LlG2ObxfP0OU8Gxy-oZI-51" style="edgeStyle=none;rounded=0;orthogonalLoop=1;jettySize=auto;html=1;exitX=1;exitY=1;exitDx=0;exitDy=0;entryX=0.5;entryY=0;entryDx=0;entryDy=0;endArrow=none;endFill=0;" parent="1" source="LlG2ObxfP0OU8Gxy-oZI-11" target="LlG2ObxfP0OU8Gxy-oZI-15" edge="1">
          <mxGeometry relative="1" as="geometry" />
        </mxCell>
        <mxCell id="LlG2ObxfP0OU8Gxy-oZI-11" value="Circuito" style="rounded=0;whiteSpace=wrap;html=1;fontSize=22;" parent="1" vertex="1">
          <mxGeometry x="1296" y="899" width="120" height="60" as="geometry" />
        </mxCell>
        <mxCell id="LlG2ObxfP0OU8Gxy-oZI-12" value="ID" style="ellipse;whiteSpace=wrap;html=1;fontSize=22;fontStyle=4" parent="1" vertex="1">
          <mxGeometry x="1121" y="989" width="110" height="60" as="geometry" />
        </mxCell>
        <mxCell id="LlG2ObxfP0OU8Gxy-oZI-13" value="Nome" style="ellipse;whiteSpace=wrap;html=1;fontSize=22;" parent="1" vertex="1">
          <mxGeometry x="1241" y="989" width="110" height="60" as="geometry" />
        </mxCell>
        <mxCell id="LlG2ObxfP0OU8Gxy-oZI-14" value="Pais" style="ellipse;whiteSpace=wrap;html=1;fontSize=18;" parent="1" vertex="1">
          <mxGeometry x="1361" y="989" width="110" height="60" as="geometry" />
        </mxCell>
        <mxCell id="LlG2ObxfP0OU8Gxy-oZI-15" value="Comprimento" style="ellipse;whiteSpace=wrap;html=1;fontSize=18;" parent="1" vertex="1">
          <mxGeometry x="1488" y="989" width="110" height="60" as="geometry" />
        </mxCell>
        <mxCell id="LlG2ObxfP0OU8Gxy-oZI-17" value="" style="edgeStyle=orthogonalEdgeStyle;rounded=0;orthogonalLoop=1;jettySize=auto;html=1;endArrow=none;endFill=0;" parent="1" source="LlG2ObxfP0OU8Gxy-oZI-16" target="LlG2ObxfP0OU8Gxy-oZI-7" edge="1">
          <mxGeometry relative="1" as="geometry" />
        </mxCell>
        <mxCell id="LlG2ObxfP0OU8Gxy-oZI-18" value="" style="edgeStyle=orthogonalEdgeStyle;rounded=0;orthogonalLoop=1;jettySize=auto;html=1;endArrow=none;endFill=0;" parent="1" source="LlG2ObxfP0OU8Gxy-oZI-16" target="LlG2ObxfP0OU8Gxy-oZI-11" edge="1">
          <mxGeometry relative="1" as="geometry" />
        </mxCell>
        <mxCell id="LlG2ObxfP0OU8Gxy-oZI-16" value="Possui" style="rhombus;whiteSpace=wrap;html=1;fontSize=22;" parent="1" vertex="1">
          <mxGeometry x="1279.5" y="734" width="153" height="80" as="geometry" />
        </mxCell>
        <mxCell id="LlG2ObxfP0OU8Gxy-oZI-32" style="edgeStyle=none;rounded=0;orthogonalLoop=1;jettySize=auto;html=1;exitX=0;exitY=0.5;exitDx=0;exitDy=0;entryX=1;entryY=0.5;entryDx=0;entryDy=0;endArrow=none;endFill=0;" parent="1" source="LlG2ObxfP0OU8Gxy-oZI-22" target="QVoMGO1QlLbTT4S3PVhZ-1" edge="1">
          <mxGeometry relative="1" as="geometry" />
        </mxCell>
        <mxCell id="LlG2ObxfP0OU8Gxy-oZI-22" value="Favorita" style="rhombus;whiteSpace=wrap;html=1;fontSize=22;" parent="1" vertex="1">
          <mxGeometry x="784" y="369" width="153" height="80" as="geometry" />
        </mxCell>
        <mxCell id="LlG2ObxfP0OU8Gxy-oZI-40" style="edgeStyle=none;rounded=0;orthogonalLoop=1;jettySize=auto;html=1;exitX=1;exitY=0.5;exitDx=0;exitDy=0;entryX=0;entryY=0.5;entryDx=0;entryDy=0;endArrow=none;endFill=0;" parent="1" source="LlG2ObxfP0OU8Gxy-oZI-38" target="LlG2ObxfP0OU8Gxy-oZI-1" edge="1">
          <mxGeometry relative="1" as="geometry" />
        </mxCell>
        <mxCell id="LlG2ObxfP0OU8Gxy-oZI-38" value="Possui" style="rhombus;whiteSpace=wrap;html=1;fontSize=22;" parent="1" vertex="1">
          <mxGeometry x="699" y="490" width="153" height="80" as="geometry" />
        </mxCell>
        <mxCell id="LlG2ObxfP0OU8Gxy-oZI-44" value="" style="edgeStyle=none;rounded=0;orthogonalLoop=1;jettySize=auto;html=1;endArrow=none;endFill=0;" parent="1" source="LlG2ObxfP0OU8Gxy-oZI-42" target="LlG2ObxfP0OU8Gxy-oZI-1" edge="1">
          <mxGeometry relative="1" as="geometry" />
        </mxCell>
        <mxCell id="LlG2ObxfP0OU8Gxy-oZI-42" value="Atualiza" style="rhombus;whiteSpace=wrap;html=1;fontSize=22;" parent="1" vertex="1">
          <mxGeometry x="1104.5" y="560" width="153" height="80" as="geometry" />
        </mxCell>
        <mxCell id="LlG2ObxfP0OU8Gxy-oZI-66" value="n" style="text;html=1;align=center;verticalAlign=middle;resizable=0;points=[];autosize=1;strokeColor=none;fillColor=none;fontSize=20;" parent="1" vertex="1">
          <mxGeometry x="937" y="369" width="30" height="40" as="geometry" />
        </mxCell>
        <mxCell id="LlG2ObxfP0OU8Gxy-oZI-67" value="n" style="text;html=1;align=center;verticalAlign=middle;resizable=0;points=[];autosize=1;strokeColor=none;fillColor=none;fontSize=20;" parent="1" vertex="1">
          <mxGeometry x="750" y="369" width="30" height="40" as="geometry" />
        </mxCell>
        <mxCell id="LlG2ObxfP0OU8Gxy-oZI-68" value="n" style="text;html=1;align=center;verticalAlign=middle;resizable=0;points=[];autosize=1;strokeColor=none;fillColor=none;fontSize=20;" parent="1" vertex="1">
          <mxGeometry x="1266" y="369" width="30" height="40" as="geometry" />
        </mxCell>
        <mxCell id="LlG2ObxfP0OU8Gxy-oZI-69" value="n" style="text;html=1;align=center;verticalAlign=middle;resizable=0;points=[];autosize=1;strokeColor=none;fillColor=none;fontSize=20;" parent="1" vertex="1">
          <mxGeometry x="1329" y="439" width="30" height="40" as="geometry" />
        </mxCell>
        <mxCell id="LlG2ObxfP0OU8Gxy-oZI-70" value="1" style="text;html=1;align=center;verticalAlign=middle;resizable=0;points=[];autosize=1;strokeColor=none;fillColor=none;fontSize=20;" parent="1" vertex="1">
          <mxGeometry x="1321" y="694" width="30" height="40" as="geometry" />
        </mxCell>
        <mxCell id="LlG2ObxfP0OU8Gxy-oZI-71" value="1" style="text;html=1;align=center;verticalAlign=middle;resizable=0;points=[];autosize=1;strokeColor=none;fillColor=none;fontSize=20;" parent="1" vertex="1">
          <mxGeometry x="1416" y="734" width="30" height="40" as="geometry" />
        </mxCell>
        <mxCell id="LlG2ObxfP0OU8Gxy-oZI-72" value="1" style="text;html=1;align=center;verticalAlign=middle;resizable=0;points=[];autosize=1;strokeColor=none;fillColor=none;fontSize=20;" parent="1" vertex="1">
          <mxGeometry x="1329" y="814" width="30" height="40" as="geometry" />
        </mxCell>
        <mxCell id="LlG2ObxfP0OU8Gxy-oZI-74" value="1" style="text;html=1;align=center;verticalAlign=middle;resizable=0;points=[];autosize=1;strokeColor=none;fillColor=none;fontSize=20;" parent="1" vertex="1">
          <mxGeometry x="1249.5" y="565" width="30" height="40" as="geometry" />
        </mxCell>
        <mxCell id="LlG2ObxfP0OU8Gxy-oZI-75" value="1" style="text;html=1;align=center;verticalAlign=middle;resizable=0;points=[];autosize=1;strokeColor=none;fillColor=none;fontSize=20;" parent="1" vertex="1">
          <mxGeometry x="1085" y="565" width="30" height="40" as="geometry" />
        </mxCell>
        <mxCell id="LlG2ObxfP0OU8Gxy-oZI-76" value="1" style="text;html=1;align=center;verticalAlign=middle;resizable=0;points=[];autosize=1;strokeColor=none;fillColor=none;fontSize=20;" parent="1" vertex="1">
          <mxGeometry x="690" y="486" width="30" height="40" as="geometry" />
        </mxCell>
        <mxCell id="LlG2ObxfP0OU8Gxy-oZI-77" value="n" style="text;html=1;align=center;verticalAlign=middle;resizable=0;points=[];autosize=1;strokeColor=none;fillColor=none;fontSize=20;" parent="1" vertex="1">
          <mxGeometry x="851" y="502" width="30" height="40" as="geometry" />
        </mxCell>
        <mxCell id="LlG2ObxfP0OU8Gxy-oZI-78" value="n" style="text;html=1;align=center;verticalAlign=middle;resizable=0;points=[];autosize=1;strokeColor=none;fillColor=none;fontSize=20;" parent="1" vertex="1">
          <mxGeometry x="520" y="479" width="30" height="40" as="geometry" />
        </mxCell>
        <mxCell id="LlG2ObxfP0OU8Gxy-oZI-81" value="1" style="text;html=1;align=center;verticalAlign=middle;resizable=0;points=[];autosize=1;strokeColor=none;fillColor=none;fontSize=20;" parent="1" vertex="1">
          <mxGeometry x="524" y="590.5" width="30" height="40" as="geometry" />
        </mxCell>
        <mxCell id="LlG2ObxfP0OU8Gxy-oZI-82" value="n" style="text;html=1;align=center;verticalAlign=middle;resizable=0;points=[];autosize=1;strokeColor=none;fillColor=none;fontSize=20;" parent="1" vertex="1">
          <mxGeometry x="274" y="649" width="30" height="40" as="geometry" />
        </mxCell>
        <mxCell id="LlG2ObxfP0OU8Gxy-oZI-83" value="1" style="text;html=1;align=center;verticalAlign=middle;resizable=0;points=[];autosize=1;strokeColor=none;fillColor=none;fontSize=20;" parent="1" vertex="1">
          <mxGeometry x="462" y="649" width="30" height="40" as="geometry" />
        </mxCell>
        <mxCell id="LlG2ObxfP0OU8Gxy-oZI-87" value="n" style="text;html=1;align=center;verticalAlign=middle;resizable=0;points=[];autosize=1;strokeColor=none;fillColor=none;fontSize=20;" parent="1" vertex="1">
          <mxGeometry x="639" y="647" width="30" height="40" as="geometry" />
        </mxCell>
        <mxCell id="LlG2ObxfP0OU8Gxy-oZI-91" value="n" style="text;html=1;align=center;verticalAlign=middle;resizable=0;points=[];autosize=1;strokeColor=none;fillColor=none;fontSize=20;" parent="1" vertex="1">
          <mxGeometry x="720" y="719" width="30" height="40" as="geometry" />
        </mxCell>
        <mxCell id="LlG2ObxfP0OU8Gxy-oZI-92" value="Possui" style="rhombus;whiteSpace=wrap;html=1;fontSize=22;" parent="1" vertex="1">
          <mxGeometry x="920.5" y="679" width="153" height="80" as="geometry" />
        </mxCell>
        <mxCell id="LlG2ObxfP0OU8Gxy-oZI-95" value="1" style="text;html=1;align=center;verticalAlign=middle;resizable=0;points=[];autosize=1;strokeColor=none;fillColor=none;fontSize=20;" parent="1" vertex="1">
          <mxGeometry x="960" y="754" width="30" height="40" as="geometry" />
        </mxCell>
        <mxCell id="LlG2ObxfP0OU8Gxy-oZI-96" value="n" style="text;html=1;align=center;verticalAlign=middle;resizable=0;points=[];autosize=1;strokeColor=none;fillColor=none;fontSize=20;" parent="1" vertex="1">
          <mxGeometry x="960" y="647" width="30" height="40" as="geometry" />
        </mxCell>
      </root>
    </mxGraphModel>
  </diagram>
  <diagram id="jM_i4swXQZlPrvtf310M" name="Página-2">
    <mxGraphModel dx="2206" dy="1212" grid="1" gridSize="10" guides="1" tooltips="1" connect="1" arrows="1" fold="1" page="1" pageScale="1" pageWidth="1654" pageHeight="1169" math="0" shadow="0">
      <root>
        <mxCell id="0" />
        <mxCell id="1" parent="0" />
        <mxCell id="PmRYkK96lfFYZheSCBr_-1" value="Pais" style="rounded=0;whiteSpace=wrap;html=1;" parent="1" vertex="1">
          <mxGeometry x="330" y="430" width="80" height="30" as="geometry" />
        </mxCell>
        <mxCell id="PmRYkK96lfFYZheSCBr_-3" value="Nome" style="rounded=0;whiteSpace=wrap;html=1;" parent="1" vertex="1">
          <mxGeometry x="250" y="430" width="80" height="30" as="geometry" />
        </mxCell>
        <mxCell id="PmRYkK96lfFYZheSCBr_-4" value="IdPiloto" style="rounded=0;whiteSpace=wrap;html=1;fontStyle=4" parent="1" vertex="1">
          <mxGeometry x="96" y="430" width="80" height="30" as="geometry" />
        </mxCell>
        <mxCell id="CVIRsLQ1q57Cbrl5jb6M-49" style="edgeStyle=orthogonalEdgeStyle;rounded=0;orthogonalLoop=1;jettySize=auto;html=1;exitX=0.5;exitY=0;exitDx=0;exitDy=0;entryX=0.25;entryY=1;entryDx=0;entryDy=0;" edge="1" parent="1" source="PmRYkK96lfFYZheSCBr_-6" target="-COsp0Us3ffTlaHqkiVr-3">
          <mxGeometry relative="1" as="geometry" />
        </mxCell>
        <mxCell id="PmRYkK96lfFYZheSCBr_-6" value="Time_Nome" style="rounded=0;whiteSpace=wrap;html=1;fontStyle=4" parent="1" vertex="1">
          <mxGeometry x="176" y="430" width="80" height="30" as="geometry" />
        </mxCell>
        <mxCell id="O5jRLyD2cok5et_jnDTa-1" value="MotoGP Diagrama de Esquema" style="text;html=1;align=center;verticalAlign=middle;resizable=0;points=[];autosize=1;strokeColor=#432D57;fillColor=#76608a;fontStyle=2;fontSize=50;fontColor=#ffffff;" parent="1" vertex="1">
          <mxGeometry width="730" height="70" as="geometry" />
        </mxCell>
        <mxCell id="-COsp0Us3ffTlaHqkiVr-1" value="Piloto" style="text;html=1;align=center;verticalAlign=middle;whiteSpace=wrap;rounded=0;fontSize=18;" parent="1" vertex="1">
          <mxGeometry x="90" y="400" width="60" height="30" as="geometry" />
        </mxCell>
        <mxCell id="-COsp0Us3ffTlaHqkiVr-2" value="País" style="rounded=0;whiteSpace=wrap;html=1;" parent="1" vertex="1">
          <mxGeometry x="616" y="250" width="80" height="30" as="geometry" />
        </mxCell>
        <mxCell id="-COsp0Us3ffTlaHqkiVr-3" value="Nome" style="rounded=0;whiteSpace=wrap;html=1;fontStyle=4" parent="1" vertex="1">
          <mxGeometry x="536" y="250" width="80" height="30" as="geometry" />
        </mxCell>
        <mxCell id="-COsp0Us3ffTlaHqkiVr-4" value="Time" style="text;html=1;align=center;verticalAlign=middle;whiteSpace=wrap;rounded=0;fontSize=18;" parent="1" vertex="1">
          <mxGeometry x="530" y="220" width="60" height="30" as="geometry" />
        </mxCell>
        <mxCell id="PVD5C8sW9NdVAIiDFGLt-1" value="Especialidade" style="rounded=0;whiteSpace=wrap;html=1;" vertex="1" parent="1">
          <mxGeometry x="764" y="410" width="80" height="30" as="geometry" />
        </mxCell>
        <mxCell id="PVD5C8sW9NdVAIiDFGLt-2" value="Nome" style="rounded=0;whiteSpace=wrap;html=1;" vertex="1" parent="1">
          <mxGeometry x="684" y="410" width="80" height="30" as="geometry" />
        </mxCell>
        <mxCell id="PVD5C8sW9NdVAIiDFGLt-3" value="IdMecanico" style="rounded=0;whiteSpace=wrap;html=1;fontStyle=4" vertex="1" parent="1">
          <mxGeometry x="530" y="410" width="80" height="30" as="geometry" />
        </mxCell>
        <mxCell id="CVIRsLQ1q57Cbrl5jb6M-51" style="edgeStyle=orthogonalEdgeStyle;rounded=0;orthogonalLoop=1;jettySize=auto;html=1;exitX=0.5;exitY=0;exitDx=0;exitDy=0;entryX=0.75;entryY=1;entryDx=0;entryDy=0;" edge="1" parent="1" source="PVD5C8sW9NdVAIiDFGLt-4" target="-COsp0Us3ffTlaHqkiVr-3">
          <mxGeometry relative="1" as="geometry" />
        </mxCell>
        <mxCell id="PVD5C8sW9NdVAIiDFGLt-4" value="Time_Nome" style="rounded=0;whiteSpace=wrap;html=1;fontStyle=4" vertex="1" parent="1">
          <mxGeometry x="610" y="410" width="80" height="30" as="geometry" />
        </mxCell>
        <mxCell id="PVD5C8sW9NdVAIiDFGLt-5" value="Mecanico" style="text;html=1;align=center;verticalAlign=middle;whiteSpace=wrap;rounded=0;fontSize=18;" vertex="1" parent="1">
          <mxGeometry x="536" y="376" width="60" height="30" as="geometry" />
        </mxCell>
        <mxCell id="PVD5C8sW9NdVAIiDFGLt-6" value="Piloto_Time_Nome" style="rounded=0;whiteSpace=wrap;html=1;" vertex="1" parent="1">
          <mxGeometry x="708" y="820" width="126" height="30" as="geometry" />
        </mxCell>
        <mxCell id="CVIRsLQ1q57Cbrl5jb6M-53" style="edgeStyle=orthogonalEdgeStyle;rounded=0;orthogonalLoop=1;jettySize=auto;html=1;exitX=0;exitY=0.25;exitDx=0;exitDy=0;entryX=0;entryY=0.25;entryDx=0;entryDy=0;" edge="1" parent="1" source="PVD5C8sW9NdVAIiDFGLt-7" target="PVD5C8sW9NdVAIiDFGLt-13">
          <mxGeometry relative="1" as="geometry">
            <Array as="points">
              <mxPoint x="40" y="828" />
              <mxPoint x="40" y="258" />
            </Array>
          </mxGeometry>
        </mxCell>
        <mxCell id="PVD5C8sW9NdVAIiDFGLt-7" value="AppUser_Email" style="rounded=0;whiteSpace=wrap;html=1;fontStyle=4" vertex="1" parent="1">
          <mxGeometry x="530" y="820" width="104" height="30" as="geometry" />
        </mxCell>
        <mxCell id="CVIRsLQ1q57Cbrl5jb6M-57" style="edgeStyle=orthogonalEdgeStyle;rounded=0;orthogonalLoop=1;jettySize=auto;html=1;exitX=0.5;exitY=0;exitDx=0;exitDy=0;entryX=0.75;entryY=1;entryDx=0;entryDy=0;" edge="1" parent="1" source="PVD5C8sW9NdVAIiDFGLt-8" target="PmRYkK96lfFYZheSCBr_-4">
          <mxGeometry relative="1" as="geometry">
            <Array as="points">
              <mxPoint x="674" y="690" />
              <mxPoint x="230" y="690" />
              <mxPoint x="230" y="490" />
              <mxPoint x="156" y="490" />
            </Array>
          </mxGeometry>
        </mxCell>
        <mxCell id="PVD5C8sW9NdVAIiDFGLt-8" value="Piloto_IdPiloto" style="rounded=0;whiteSpace=wrap;html=1;fontStyle=4" vertex="1" parent="1">
          <mxGeometry x="634" y="820" width="80" height="30" as="geometry" />
        </mxCell>
        <mxCell id="PVD5C8sW9NdVAIiDFGLt-9" value="Favorito" style="text;html=1;align=center;verticalAlign=middle;whiteSpace=wrap;rounded=0;fontSize=18;" vertex="1" parent="1">
          <mxGeometry x="534" y="790" width="60" height="30" as="geometry" />
        </mxCell>
        <mxCell id="PVD5C8sW9NdVAIiDFGLt-12" value="Senha" style="rounded=0;whiteSpace=wrap;html=1;" vertex="1" parent="1">
          <mxGeometry x="384" y="250" width="80" height="30" as="geometry" />
        </mxCell>
        <mxCell id="PVD5C8sW9NdVAIiDFGLt-13" value="Email" style="rounded=0;whiteSpace=wrap;html=1;fontStyle=4" vertex="1" parent="1">
          <mxGeometry x="230" y="250" width="80" height="30" as="geometry" />
        </mxCell>
        <mxCell id="PVD5C8sW9NdVAIiDFGLt-14" value="Usuario" style="rounded=0;whiteSpace=wrap;html=1;fontStyle=0" vertex="1" parent="1">
          <mxGeometry x="310" y="250" width="80" height="30" as="geometry" />
        </mxCell>
        <mxCell id="PVD5C8sW9NdVAIiDFGLt-15" value="AppUser" style="text;html=1;align=center;verticalAlign=middle;whiteSpace=wrap;rounded=0;fontSize=18;" vertex="1" parent="1">
          <mxGeometry x="234" y="220" width="60" height="30" as="geometry" />
        </mxCell>
        <mxCell id="CVIRsLQ1q57Cbrl5jb6M-46" style="edgeStyle=orthogonalEdgeStyle;rounded=0;orthogonalLoop=1;jettySize=auto;html=1;exitX=1;exitY=0.5;exitDx=0;exitDy=0;entryX=0.5;entryY=1;entryDx=0;entryDy=0;startArrow=classic;startFill=1;endArrow=none;endFill=0;" edge="1" parent="1" source="PVD5C8sW9NdVAIiDFGLt-17" target="CVIRsLQ1q57Cbrl5jb6M-16">
          <mxGeometry relative="1" as="geometry" />
        </mxCell>
        <mxCell id="PVD5C8sW9NdVAIiDFGLt-17" value="Ano" style="rounded=0;whiteSpace=wrap;html=1;fontStyle=4" vertex="1" parent="1">
          <mxGeometry x="96" y="570" width="80" height="30" as="geometry" />
        </mxCell>
        <mxCell id="PVD5C8sW9NdVAIiDFGLt-18" value="Temporada" style="text;html=1;align=center;verticalAlign=middle;whiteSpace=wrap;rounded=0;fontSize=18;" vertex="1" parent="1">
          <mxGeometry x="100" y="540" width="60" height="30" as="geometry" />
        </mxCell>
        <mxCell id="CVIRsLQ1q57Cbrl5jb6M-43" style="edgeStyle=orthogonalEdgeStyle;rounded=0;orthogonalLoop=1;jettySize=auto;html=1;exitX=0.5;exitY=1;exitDx=0;exitDy=0;entryX=0;entryY=0.5;entryDx=0;entryDy=0;" edge="1" parent="1" source="PVD5C8sW9NdVAIiDFGLt-19" target="CVIRsLQ1q57Cbrl5jb6M-11">
          <mxGeometry relative="1" as="geometry" />
        </mxCell>
        <mxCell id="PVD5C8sW9NdVAIiDFGLt-19" value="Patrocinador_Nome" style="rounded=0;whiteSpace=wrap;html=1;fontStyle=4" vertex="1" parent="1">
          <mxGeometry x="870" y="250" width="104" height="30" as="geometry" />
        </mxCell>
        <mxCell id="CVIRsLQ1q57Cbrl5jb6M-44" style="edgeStyle=orthogonalEdgeStyle;rounded=0;orthogonalLoop=1;jettySize=auto;html=1;exitX=0.5;exitY=1;exitDx=0;exitDy=0;entryX=0.5;entryY=1;entryDx=0;entryDy=0;" edge="1" parent="1" source="PVD5C8sW9NdVAIiDFGLt-20" target="-COsp0Us3ffTlaHqkiVr-3">
          <mxGeometry relative="1" as="geometry" />
        </mxCell>
        <mxCell id="PVD5C8sW9NdVAIiDFGLt-20" value="Time_Nome" style="rounded=0;whiteSpace=wrap;html=1;fontStyle=4" vertex="1" parent="1">
          <mxGeometry x="974" y="250" width="80" height="30" as="geometry" />
        </mxCell>
        <mxCell id="PVD5C8sW9NdVAIiDFGLt-21" value="Patrocinio" style="text;html=1;align=center;verticalAlign=middle;whiteSpace=wrap;rounded=0;fontSize=18;" vertex="1" parent="1">
          <mxGeometry x="880" y="220" width="60" height="30" as="geometry" />
        </mxCell>
        <mxCell id="PVD5C8sW9NdVAIiDFGLt-22" value="IdCorrida" style="rounded=0;whiteSpace=wrap;html=1;fontStyle=4" vertex="1" parent="1">
          <mxGeometry x="1150" y="500" width="104" height="30" as="geometry" />
        </mxCell>
        <mxCell id="PVD5C8sW9NdVAIiDFGLt-24" value="Corrida" style="text;html=1;align=center;verticalAlign=middle;whiteSpace=wrap;rounded=0;fontSize=18;" vertex="1" parent="1">
          <mxGeometry x="1160" y="470" width="60" height="30" as="geometry" />
        </mxCell>
        <mxCell id="PVD5C8sW9NdVAIiDFGLt-25" value="Data" style="rounded=0;whiteSpace=wrap;html=1;fontStyle=0" vertex="1" parent="1">
          <mxGeometry x="1370" y="500" width="80" height="30" as="geometry" />
        </mxCell>
        <mxCell id="CVIRsLQ1q57Cbrl5jb6M-45" style="edgeStyle=orthogonalEdgeStyle;rounded=0;orthogonalLoop=1;jettySize=auto;html=1;exitX=0.5;exitY=1;exitDx=0;exitDy=0;entryX=0.5;entryY=0;entryDx=0;entryDy=0;" edge="1" parent="1" source="PVD5C8sW9NdVAIiDFGLt-26" target="CVIRsLQ1q57Cbrl5jb6M-1">
          <mxGeometry relative="1" as="geometry" />
        </mxCell>
        <mxCell id="PVD5C8sW9NdVAIiDFGLt-26" value="Circuito_IdCircuito" style="rounded=0;whiteSpace=wrap;html=1;fontStyle=4" vertex="1" parent="1">
          <mxGeometry x="1254" y="500" width="126" height="30" as="geometry" />
        </mxCell>
        <mxCell id="CVIRsLQ1q57Cbrl5jb6M-1" value="IdCircuito" style="rounded=0;whiteSpace=wrap;html=1;fontStyle=4" vertex="1" parent="1">
          <mxGeometry x="1150" y="640" width="104" height="30" as="geometry" />
        </mxCell>
        <mxCell id="CVIRsLQ1q57Cbrl5jb6M-2" value="Circuito" style="text;html=1;align=center;verticalAlign=middle;whiteSpace=wrap;rounded=0;fontSize=18;" vertex="1" parent="1">
          <mxGeometry x="1129" y="610" width="60" height="30" as="geometry" />
        </mxCell>
        <mxCell id="CVIRsLQ1q57Cbrl5jb6M-3" value="Pais" style="rounded=0;whiteSpace=wrap;html=1;fontStyle=0" vertex="1" parent="1">
          <mxGeometry x="1320" y="640" width="80" height="30" as="geometry" />
        </mxCell>
        <mxCell id="CVIRsLQ1q57Cbrl5jb6M-4" value="Nome" style="rounded=0;whiteSpace=wrap;html=1;fontStyle=0" vertex="1" parent="1">
          <mxGeometry x="1254" y="640" width="66" height="30" as="geometry" />
        </mxCell>
        <mxCell id="CVIRsLQ1q57Cbrl5jb6M-5" value="Comprimento" style="rounded=0;whiteSpace=wrap;html=1;fontStyle=0" vertex="1" parent="1">
          <mxGeometry x="1400" y="640" width="80" height="30" as="geometry" />
        </mxCell>
        <mxCell id="CVIRsLQ1q57Cbrl5jb6M-48" style="edgeStyle=orthogonalEdgeStyle;rounded=0;orthogonalLoop=1;jettySize=auto;html=1;exitX=0;exitY=0.5;exitDx=0;exitDy=0;entryX=0;entryY=0.5;entryDx=0;entryDy=0;" edge="1" parent="1" source="CVIRsLQ1q57Cbrl5jb6M-6" target="PVD5C8sW9NdVAIiDFGLt-13">
          <mxGeometry relative="1" as="geometry" />
        </mxCell>
        <mxCell id="CVIRsLQ1q57Cbrl5jb6M-6" value="AppUser_Email" style="rounded=0;whiteSpace=wrap;html=1;fontStyle=4" vertex="1" parent="1">
          <mxGeometry x="100" y="744" width="104" height="30" as="geometry" />
        </mxCell>
        <mxCell id="CVIRsLQ1q57Cbrl5jb6M-7" value="Comentario" style="text;html=1;align=center;verticalAlign=middle;whiteSpace=wrap;rounded=0;fontSize=18;" vertex="1" parent="1">
          <mxGeometry x="116" y="714" width="60" height="30" as="geometry" />
        </mxCell>
        <mxCell id="CVIRsLQ1q57Cbrl5jb6M-8" value="Texto" style="rounded=0;whiteSpace=wrap;html=1;fontStyle=0" vertex="1" parent="1">
          <mxGeometry x="320" y="744" width="80" height="30" as="geometry" />
        </mxCell>
        <mxCell id="CVIRsLQ1q57Cbrl5jb6M-58" style="edgeStyle=orthogonalEdgeStyle;rounded=0;orthogonalLoop=1;jettySize=auto;html=1;exitX=0.5;exitY=0;exitDx=0;exitDy=0;entryX=0.25;entryY=1;entryDx=0;entryDy=0;" edge="1" parent="1" source="CVIRsLQ1q57Cbrl5jb6M-9" target="PVD5C8sW9NdVAIiDFGLt-22">
          <mxGeometry relative="1" as="geometry">
            <Array as="points">
              <mxPoint x="267" y="660" />
              <mxPoint x="1100" y="660" />
              <mxPoint x="1100" y="560" />
              <mxPoint x="1176" y="560" />
            </Array>
          </mxGeometry>
        </mxCell>
        <mxCell id="CVIRsLQ1q57Cbrl5jb6M-9" value="Corrida_IdCorrida" style="rounded=0;whiteSpace=wrap;html=1;fontStyle=4" vertex="1" parent="1">
          <mxGeometry x="204" y="744" width="126" height="30" as="geometry" />
        </mxCell>
        <mxCell id="CVIRsLQ1q57Cbrl5jb6M-10" value="País" style="rounded=0;whiteSpace=wrap;html=1;" vertex="1" parent="1">
          <mxGeometry x="1230" y="364" width="80" height="30" as="geometry" />
        </mxCell>
        <mxCell id="CVIRsLQ1q57Cbrl5jb6M-11" value="Nome" style="rounded=0;whiteSpace=wrap;html=1;fontStyle=4" vertex="1" parent="1">
          <mxGeometry x="1150" y="364" width="80" height="30" as="geometry" />
        </mxCell>
        <mxCell id="CVIRsLQ1q57Cbrl5jb6M-12" value="Patrocinador" style="text;html=1;align=center;verticalAlign=middle;whiteSpace=wrap;rounded=0;fontSize=18;" vertex="1" parent="1">
          <mxGeometry x="1160" y="334" width="60" height="30" as="geometry" />
        </mxCell>
        <mxCell id="CVIRsLQ1q57Cbrl5jb6M-13" value="Pontos" style="rounded=0;whiteSpace=wrap;html=1;fontStyle=0" vertex="1" parent="1">
          <mxGeometry x="816" y="590" width="80" height="30" as="geometry" />
        </mxCell>
        <mxCell id="CVIRsLQ1q57Cbrl5jb6M-52" style="edgeStyle=orthogonalEdgeStyle;rounded=0;orthogonalLoop=1;jettySize=auto;html=1;exitX=0.5;exitY=0;exitDx=0;exitDy=0;entryX=0;entryY=0.5;entryDx=0;entryDy=0;" edge="1" parent="1" source="CVIRsLQ1q57Cbrl5jb6M-14" target="PVD5C8sW9NdVAIiDFGLt-22">
          <mxGeometry relative="1" as="geometry" />
        </mxCell>
        <mxCell id="CVIRsLQ1q57Cbrl5jb6M-14" value="Corrida_IdCorrida" style="rounded=0;whiteSpace=wrap;html=1;fontStyle=4" vertex="1" parent="1">
          <mxGeometry x="716" y="590" width="100" height="30" as="geometry" />
        </mxCell>
        <mxCell id="CVIRsLQ1q57Cbrl5jb6M-56" style="edgeStyle=orthogonalEdgeStyle;rounded=0;orthogonalLoop=1;jettySize=auto;html=1;exitX=0;exitY=0.5;exitDx=0;exitDy=0;entryX=0.5;entryY=1;entryDx=0;entryDy=0;" edge="1" parent="1" source="CVIRsLQ1q57Cbrl5jb6M-15" target="PmRYkK96lfFYZheSCBr_-4">
          <mxGeometry relative="1" as="geometry">
            <Array as="points">
              <mxPoint x="510" y="605" />
              <mxPoint x="510" y="520" />
              <mxPoint x="136" y="520" />
            </Array>
          </mxGeometry>
        </mxCell>
        <mxCell id="CVIRsLQ1q57Cbrl5jb6M-15" value="Piloto_IdPiloto" style="rounded=0;whiteSpace=wrap;html=1;fontStyle=4" vertex="1" parent="1">
          <mxGeometry x="530" y="590" width="80" height="30" as="geometry" />
        </mxCell>
        <mxCell id="CVIRsLQ1q57Cbrl5jb6M-16" value="Temporada_Ano" style="rounded=0;whiteSpace=wrap;html=1;fontStyle=4" vertex="1" parent="1">
          <mxGeometry x="610" y="590" width="106" height="30" as="geometry" />
        </mxCell>
        <mxCell id="CVIRsLQ1q57Cbrl5jb6M-17" value="Classificacao" style="text;html=1;align=center;verticalAlign=middle;whiteSpace=wrap;rounded=0;fontSize=18;" vertex="1" parent="1">
          <mxGeometry x="546" y="560" width="60" height="30" as="geometry" />
        </mxCell>
      </root>
    </mxGraphModel>
  </diagram>
</mxfile>
